<?xml version="1.0" encoding="utf-8"?>
<!-- Generator: Adobe Illustrator 21.1.0, SVG Export Plug-In . SVG Version: 6.00 Build 0)  -->
<svg version="1.1" id="Layer_1" xmlns="http://www.w3.org/2000/svg" xmlns:xlink="http://www.w3.org/1999/xlink" x="0px" y="0px"
     viewBox="0 0 339 276" style="enable-background:new 0 0 339 276;" xml:space="preserve">
<style type="text/css">
    .st0{fill-rule:evenodd;clip-rule:evenodd;fill:#E9EEFF;}
    .st1{fill:#FFFFFF;}
    .st2{fill:#E9EEFF;}
    .st3{fill:#FFFFFF;stroke:#5158CF;stroke-width:4;stroke-linecap:round;stroke-linejoin:round;stroke-miterlimit:10;}
    .st4{fill:#8D9BFF;}
    .st5{fill:#F3F5F5;}
    .st6{fill:#AEBCFF;}
    .st7{fill:none;stroke:#5158CF;stroke-width:4;stroke-linecap:round;stroke-linejoin:round;stroke-miterlimit:10;}
    .st8{fill:none;stroke:#5158CF;stroke-width:2;stroke-linecap:round;stroke-linejoin:round;stroke-miterlimit:10;}
    .st9{fill:#8D9BFF;stroke:#5158CF;stroke-width:4;stroke-linecap:round;stroke-linejoin:round;stroke-miterlimit:10;}
    .st10{fill:none;stroke:#5158CF;stroke-width:4;stroke-linejoin:round;stroke-miterlimit:10;}
    .st11{fill:#FFFFFF;stroke:#5158CF;stroke-width:2;stroke-linecap:round;stroke-linejoin:round;stroke-miterlimit:10;}
    .st12{fill:none;stroke:#5158CF;stroke-width:2;stroke-linecap:round;stroke-linejoin:round;}
    .st13{fill:none;stroke:#5158CF;stroke-width:2;stroke-linecap:round;stroke-linejoin:round;stroke-dasharray:3.8557,5.7835;}
    .st14{fill:#FCDE8D;stroke:#5158CF;stroke-width:4;stroke-linecap:round;stroke-linejoin:round;stroke-miterlimit:10;}
    .st15{fill:#5158CF;stroke:#5158CF;stroke-width:4;stroke-linecap:round;stroke-linejoin:round;stroke-miterlimit:10;}
    .st16{fill:#FF4F50;stroke:#5158CF;stroke-width:2;stroke-linecap:round;stroke-linejoin:round;stroke-miterlimit:10;}
</style>
<path class="st0" d="M161.2,7c-43.6,0-76.5,11-95.6,30.1C45.1,57.7,37,82.5,37,110.8c0,44.9,22.7,93,54.4,124.7
    c8.3,8.3,36.9,33.7,74.3,33.7c38.3,0,66.8-23.4,84.7-41.3c34.6-34.6,66-94.3,66-133.3c0-21.9-10-36.8-17.6-44.5
    C268.7,20.1,204,7,161.2,7z"/>
<path class="st1" d="M246,185H108c-3.3,0-6-2.7-6-6V81c0-3.3,2.7-6,6-6h138c3.3,0,6,2.7,6,6v98C252,182.3,249.3,185,246,185z"/>
<g>
    <path class="st2" d="M246,75h-78v60c0,3.3,2.7,6,6,6h7v12.8c0,2.7,3.2,4,5.1,2.1L201,141h51V81C252,77.7,249.3,75,246,75z"/>
</g>
<path class="st3" d="M147,213L147,213c0-3.9,3.1-7,7-7h46c3.9,0,7,3.1,7,7l0,0"/>
<path class="st3" d="M224,213c2.9-5.4,8.5-9,15-9c6.5,0,12.1,3.6,15,9"/>
<path class="st4" d="M102,164h150v15c0,3.3-2.7,6-6,6H108c-3.3,0-6-2.7-6-6V164z"/>
<polygon class="st1" points="73,129 102,174 102,106 88,103 "/>
<g>
    <path class="st4" d="M83.5,95.7L83.5,95.7c-8.8-4.7-19.9-1.5-25.1,7.5s-2.4,20.2,6.1,25.4l0,0l0.9,0.5l19-32.9L83.5,95.7z"/>
    <rect x="58.4" y="111.1" transform="matrix(0.5 -0.866 0.866 0.5 -60.1098 124.1312)" class="st5" width="38" height="6"/>
</g>
<polygon class="st6" points="196.8,199.9 194,185 160,185 158.8,191.1 "/>
<polyline class="st6" points="61,213 61,181 81,181 81,213 "/>
<rect x="61" y="181" class="st1" width="20" height="5"/>
<line class="st7" x1="63" y1="159" x2="66" y2="181"/>
<line class="st8" x1="61" y1="186" x2="81" y2="186"/>
<g>
    <line class="st7" x1="73.1" y1="157.6" x2="72" y2="181"/>
    <polyline class="st8" points="76.5,169.8 77,159 73,158.8    "/>
</g>
<polyline class="st7" points="61,213 61,181 81,181 81,213 "/>
<polyline class="st9" points="42,213 42,206 68,206 68,213 "/>
<path class="st7" d="M246,185H108c-3.3,0-6-2.7-6-6V81c0-3.3,2.7-6,6-6h138c3.3,0,6,2.7,6,6v98C252,182.3,249.3,185,246,185z"/>
<g>
    <line class="st7" x1="194" y1="185" x2="198" y2="206"/>
    <line class="st7" x1="156" y1="206" x2="160" y2="185"/>
</g>
<path class="st8" d="M31.6,153.3c3.1-1.6,6.4-4.5,7.4-10.3c2-12-8-20-6-32c2-14,16.4-13.9,16.4-13.9"/>
<line class="st10" x1="50.6" y1="108.8" x2="27.5" y2="148.2"/>
<path class="st9" d="M64.8,96.4l-6.1-3.5c-2.9-1.7-6.5-0.7-8.2,2.2l-3,5.2c-1.7,2.9-0.7,6.5,2.2,8.2l6.1,3.5"/>
<line class="st8" x1="65.3" y1="129.1" x2="84.3" y2="96.2"/>
<line class="st10" x1="27.7" y1="163.6" x2="57" y2="206"/>
<circle class="st9" cx="23" cy="156" r="9"/>
<circle class="st11" cx="23" cy="156" r="4"/>
<path class="st8" d="M22.9,165c0,0-1.9,9,4.1,16c6.1,7.2,16,5,21.4,25"/>
<circle class="st11" cx="177" cy="174" r="3"/>
<path class="st7" d="M83.5,95.7c-8.8-4.8-19.9-1.5-25.1,7.4s-2.4,20.2,6.1,25.4l0,0l6.1,3.5l19-32.9L83.5,95.7L83.5,95.7z"/>
<path class="st1" d="M313,172h-24v-13c0-1.1,0.9-2,2-2h20c1.1,0,2,0.9,2,2V172z"/>
<g>
    <path class="st1" d="M331,195h-56c0,0-2,3-2,9s2,9,2,9h56c0,0-2-3-2-9S331,195,331,195z"/>
</g>
<path class="st6" d="M275,195h-5c0,0-2,3-2,9s2,9,2,9h5c0,0-2-3-2-9S275,195,275,195z"/>
<path class="st6" d="M307,187h-12c-3.3,0-6-2.7-6-6v-9h24v9C313,184.3,310.3,187,307,187z"/>
<path class="st7" d="M307,187h-12c-3.3,0-6-2.7-6-6v-22c0-1.1,0.9-2,2-2h20c1.1,0,2,0.9,2,2v22C313,184.3,310.3,187,307,187z"/>
<path class="st7" d="M313,163h3c4.4,0,8,3.6,8,8v0c0,4.4-3.6,8-8,8h-3"/>
<rect x="275" y="187" class="st9" width="52" height="8"/>
<path class="st7" d="M332,213h-62c0,0-2-3-2-9s2-9,2-9h62"/>
<path class="st8" d="M331,213c0,0-2-3-2-9s2-9,2-9"/>
<path class="st8" d="M275,213c0,0-2-3-2-9s2-9,2-9"/>
<line class="st8" x1="329.2" y1="201" x2="305" y2="201"/>
<line class="st8" x1="329" y1="205" x2="315" y2="205"/>
<g>
    <g>
        <path class="st12" d="M300.2,150c0,0,0.6-0.5,1.2-1.6"/>
        <path class="st13" d="M302.9,142.9c0-0.3,0-0.6,0-0.9c0-5.6-4-8.3-4-12.1c0-0.9,0.1-1.8,0.4-2.6"/>
        <path class="st12" d="M300.4,124.6c0.6-1,1.1-1.6,1.1-1.6"/>
    </g>
</g>
<line class="st8" x1="102" y1="164" x2="252" y2="164"/>
<path class="st14" d="M269,52H161c-3.3,0-6,2.7-6,6v68c0,3.3,2.7,6,6,6h7v12.8c0,2.7,3.2,4,5.1,2.1L188,132h81c3.3,0,6-2.7,6-6V58
    C275,54.7,272.3,52,269,52z"/>
<line class="st8" x1="20.2" y1="153.2" x2="25.8" y2="158.8"/>
<g>
    <line class="st7" x1="275" y1="40" x2="275" y2="30"/>
    <line class="st7" x1="283.5" y1="43.5" x2="294" y2="33"/>
    <line class="st7" x1="287" y1="52" x2="297" y2="52"/>
</g>
<line class="st7" x1="22" y1="213" x2="332" y2="213"/>
<g>
    <path class="st15" d="M198.5,101c-3.5,0-5.3,4.2-2.9,6.8c4.9,5.1,11.8,8.2,19.4,8.2s14.5-3.2,19.4-8.2c2.4-2.5,0.6-6.8-2.9-6.8
        H198.5z"/>
    <g>
        <path class="st16" d="M200.7,111.9c4.2,2.6,9.1,4.1,14.3,4.1s10.2-1.5,14.3-4.1c-4.1-3.1-9-4.9-14.3-4.9S204.7,108.8,200.7,111.9z
            "/>
    </g>
</g>
<path class="st7" d="M192,88c0-4.4,3.6-8,8-8s8,3.6,8,8"/>
<path class="st7" d="M222,88c0-4.4,3.6-8,8-8s8,3.6,8,8"/>
<path class="st7" d="M187,73.7c5.3-2.4,11.3-4.1,17.9-5"/>
<path class="st7" d="M242.8,73.7c-5.3-2.4-11.3-4.1-17.9-5"/>
</svg>
